<?xml version="1.0" standalone="no"?>
<!DOCTYPE svg PUBLIC "-//W3C//DTD SVG 20010904//EN"
 "http://www.w3.org/TR/2001/REC-SVG-20010904/DTD/svg10.dtd">
<svg version="1.0" xmlns="http://www.w3.org/2000/svg"
 width="372.000000pt" height="372.000000pt" viewBox="0 0 372.000000 372.000000"
 preserveAspectRatio="xMidYMid meet">
<metadata>
Created by potrace 1.16, written by Peter Selinger 2001-2019
</metadata>
<g transform="translate(0.000000,372.000000) scale(0.100000,-0.100000)"
fill="#000000" stroke="none">
<path d="M1340 3434 c-134 -21 -177 -30 -252 -55 -301 -98 -557 -319 -702
-607 -43 -85 -87 -216 -107 -317 -20 -101 -20 -1129 0 -1230 48 -245 161 -457
335 -631 139 -138 295 -235 474 -293 170 -55 183 -56 772 -56 589 0 602 1 772
56 179 58 335 155 474 293 138 139 235 295 293 474 55 170 56 183 56 772 0
589 -1 602 -56 772 -58 179 -155 335 -293 474 -168 168 -356 271 -603 330 -58
14 -147 17 -603 19 -294 2 -546 1 -560 -1z m632 -696 c54 -19 123 -71 158
-119 57 -79 61 -112 58 -470 -3 -317 -3 -325 -26 -369 -29 -56 -96 -126 -142
-149 -175 -88 -377 -23 -459 149 l-26 55 0 345 c0 339 0 346 23 387 82 154
256 226 414 171z m-634 -764 c14 -17 22 -38 22 -62 0 -20 7 -66 15 -101 58
-246 294 -408 552 -379 226 25 404 217 430 461 3 33 14 68 24 81 38 48 106 41
134 -15 14 -27 15 -42 6 -114 -41 -305 -236 -509 -553 -579 -28 -6 -28 -7 -28
-91 l0 -85 139 0 c131 0 142 -1 165 -22 39 -34 44 -78 13 -114 l-25 -29 -344
-3 c-188 -2 -358 0 -376 3 -23 4 -39 16 -52 38 -27 44 -25 63 9 98 l29 29 141
0 141 0 0 84 0 84 -76 17 c-276 61 -478 301 -509 605 -6 57 -4 68 14 92 35 44
89 45 129 2z"/>
<path d="M1800 2579 c-33 -13 -68 -47 -88 -84 -14 -25 -17 -72 -20 -279 -5
-308 -1 -345 41 -393 76 -87 192 -83 259 8 32 43 38 94 38 344 0 250 -6 301
-37 344 -40 55 -133 84 -193 60z"/>
</g>
</svg>
